<svg width="104" height="150" viewBox="0 0 104 150" fill="none" xmlns="http://www.w3.org/2000/svg">
<path d="M23.4853 1L1 11.4931V149.403H23.4853V1Z" fill="#3C5414"/>
<path d="M26.2524 72.9077V149.349L54.9647 149.403L55.0463 65.3628L26.2524 72.9077Z" fill="#3C5414"/>
<path d="M23.4854 1L71.454 6.17757V67.0566L54.9648 65.4579L26.2524 72.9077V149.403H23.4854V1Z" fill="white"/>
<path d="M54.8923 65.3628L54.9648 149.403H102.933V70.1361L54.8923 65.3628Z" fill="white"/>
<path d="M55.0463 65.3628L102.779 70.2901" stroke="black" strokeLinecap="round"/>
<path d="M55.0463 65.3628V149.127" stroke="black" strokeLinecap="round"/>
<path d="M55.0463 65.3628L26.2524 72.9077V149.281H102.78" stroke="black" strokeLinecap="round"/>
<path d="M102.779 70.2901V149.281" stroke="black" strokeLinecap="round"/>
<path d="M26.2524 149.281H1.15393" stroke="black" strokeLinecap="round"/>
<path d="M1.15393 149.281V11.6245" stroke="black" strokeLinecap="round"/>
<path d="M1.15393 11.6245L23.4807 1.15396" stroke="black" strokeLinecap="round"/>
<path d="M23.4807 1.15396L71.3679 6.23524" stroke="black" strokeLinecap="round"/>
<path d="M71.3679 6.23523V66.9026" stroke="black" strokeLinecap="round"/>
<path d="M23.4807 1.30795V149.127" stroke="black" strokeLinecap="round"/>
</svg>
